<svg width="1915" height="664" viewBox="0 0 1915 664" fill="none" xmlns="http://www.w3.org/2000/svg">
<path d="M1583 0C1766.18 0.000263896 1914.67 148.493 1914.67 331.668C1914.67 514.842 1766.18 663.335 1583 663.335C1438.2 663.335 1315.06 570.533 1269.83 441.159C1224.61 570.533 1101.48 663.335 956.668 663.335C812.567 663.335 689.931 571.436 644.167 443.05C598.403 571.436 475.769 663.335 331.668 663.335C148.493 663.335 0.000264033 514.843 0 331.668C0 148.493 148.493 0 331.668 0C475.768 0.000207602 598.403 91.8982 644.167 220.284C689.931 91.8979 812.567 0 956.668 0C1101.47 0.00020862 1224.61 92.8013 1269.83 222.175C1315.06 92.8011 1438.2 0 1583 0Z" fill="#FFFCF3"/>
</svg>
