<svg width="32" height="40" viewBox="0 0 32 40" fill="none" xmlns="http://www.w3.org/2000/svg">
<path d="M3.48804 0.0283428C17.2687 -0.620981 29.3531 9.95784 30.8988 24.4245C31.4612 29.6933 30.5471 34.7775 28.5071 39.2364C28.3138 39.2636 28.1244 39.2957 27.9319 39.318C14.1252 40.9133 1.68963 30.5652 0.155972 16.2049C-0.469103 10.3526 0.813473 4.73688 3.48804 0.0283428ZM16.9415 23.7727C21.3399 30.8593 25.4301 36.2518 26.0766 35.8183C26.7214 35.384 23.6777 29.2888 19.2762 22.2029C14.8762 15.1163 10.786 9.72382 10.1404 10.1573C9.49378 10.5916 12.5391 16.6869 16.9415 23.7727Z" fill="white"/>
</svg>
