<svg width="40" height="51" viewBox="0 0 40 51" fill="none" xmlns="http://www.w3.org/2000/svg">
<path d="M4.4917 0.0364983C22.2377 -0.799666 37.7994 12.8232 39.7899 31.4526C40.5141 38.2375 39.337 44.7846 36.7099 50.5265C36.461 50.5616 36.2171 50.603 35.9692 50.6316C18.1896 52.686 2.1758 39.3602 0.200832 20.8678C-0.604103 13.3315 1.04753 6.0999 4.4917 0.0364983ZM21.8164 30.6133C27.4804 39.739 32.7475 46.6831 33.58 46.1249C34.4104 45.5657 30.4909 37.7165 24.8229 28.5918C19.1568 19.466 13.8897 12.5218 13.0583 13.08C12.2256 13.6393 16.1471 21.4885 21.8164 30.6133Z" fill="#FFB059"/>
</svg>
