<svg width="30" height="38" viewBox="0 0 30 38" fill="none" xmlns="http://www.w3.org/2000/svg">
<path d="M3.30606 0.0268642C16.3678 -0.588586 27.8219 9.43838 29.2869 23.1504C29.82 28.1443 28.9536 32.9633 27.0199 37.1895C26.8367 37.2153 26.6572 37.2458 26.4748 37.2669C13.3883 38.779 1.60146 28.9707 0.147814 15.3595C-0.444654 9.81254 0.771015 4.48977 3.30606 0.0268642ZM16.0577 22.5326C20.2267 29.2495 24.1034 34.3606 24.7162 33.9498C25.3274 33.5382 22.4425 27.7609 18.2706 21.0447C14.1002 14.3278 10.2234 9.21656 9.6114 9.62742C8.9985 10.0391 11.8849 15.8164 16.0577 22.5326Z" fill="#008655"/>
</svg>
