<svg width="24" height="31" viewBox="0 0 24 31" fill="none" xmlns="http://www.w3.org/2000/svg">
<path d="M2.69502 0.021899C13.3426 -0.4798 22.6796 7.69391 23.8739 18.8716C24.3085 22.9425 23.6022 26.8708 22.0259 30.3159C21.8766 30.3369 21.7302 30.3618 21.5815 30.379C10.9138 31.6116 1.30548 23.6161 0.120498 12.5207C-0.362464 7.99892 0.628517 3.65994 2.69502 0.021899ZM13.0898 18.368C16.4883 23.8434 19.6485 28.0099 20.148 27.6749C20.6462 27.3394 18.2946 22.6299 14.8937 17.1551C11.4941 11.6796 8.33381 7.51309 7.83496 7.84802C7.33534 8.1836 9.68829 12.8931 13.0898 18.368Z" fill="#008655"/>
</svg>
